<svg width="26" height="26" viewBox="0 0 26 26" fill="none" xmlns="http://www.w3.org/2000/svg">
<g clip-path="url(#clip0)">
<path d="M25.7774 0.223182C25.562 0.00761574 25.2386 -0.0587046 24.9559 0.0545884L0.479331 9.84511C0.199222 9.95708 0.0116865 10.2238 0.000971637 10.5253C-0.00974321 10.8267 0.158444 11.1061 0.429769 11.2377L10.0816 15.9188L14.7627 25.5707C14.8904 25.8339 15.157 26 15.4479 26C15.457 26 15.466 25.9998 15.4751 25.9995C15.7766 25.9888 16.0433 25.8012 16.1553 25.5212L25.946 1.04472C26.0592 0.761819 25.9928 0.438647 25.7774 0.223182Z" fill="white"/>
<path d="M25.7768 0.223145L10.0811 15.9187L14.7622 25.5706C14.8898 25.8339 15.1564 25.9999 15.4474 25.9999C15.4564 25.9999 15.4655 25.9998 15.4746 25.9994C15.776 25.9887 16.0427 25.8012 16.1547 25.5211L25.9454 1.04468C26.0586 0.761781 25.9922 0.438609 25.7768 0.223145Z" fill="#E9E9E9"/>
</g>
<defs>
<clipPath id="clip0">
<rect width="26" height="26" fill="white"/>
</clipPath>
</defs>
</svg>
