<svg width="1423" height="1015" viewBox="0 0 1423 1015" fill="none" xmlns="http://www.w3.org/2000/svg">
<mask id="mask0" style="mask-type:alpha" maskUnits="userSpaceOnUse" x="-20" y="-24" width="1443" height="1039">
<rect x="-20" y="-24" width="1443" height="1039" fill="white"/>
</mask>
<g mask="url(#mask0)">
<rect x="-28" y="-24" width="1458" height="818" fill="#FFDF92"/>
<path d="M1234.5 -75.5001C1284 169.5 1045.88 224.991 1012.4 257C955.502 311.384 863.882 268 753.5 268C652.579 268 507.051 382.2 448.895 335.5C406.006 301.059 149.5 188.5 171.5 -43C171.5 -154.562 530.15 -75.5 705.5 -75.5C880.85 -75.5 1234.5 -187.062 1234.5 -75.5001Z" fill="#FBEEB0"/>
<path d="M103 457C144.261 513.226 214.164 445 261 445C296.685 445 344.744 489.022 379.645 520.058C471.508 601.743 489.345 540 578 540C686.727 540 726.188 570 797 570C867.812 570 889.638 468.793 969 456C1043.25 444.031 1059.89 480.176 1132.37 437.68C1190.36 403.683 1259 278 1322 278C1404 278 1423.5 407 1423.5 496V831H-22.0001C-22.0001 831 -33.6473 510.118 -22.0002 399C30.9999 377 50.5878 424.31 103 457Z" fill="#FDE9A3"/>
<ellipse cx="1012" cy="443.5" rx="54" ry="53.5" fill="#DC962D"/>
<ellipse cx="965" cy="480.5" rx="54" ry="53.5" fill="#DC962D"/>
<ellipse cx="1041" cy="489.5" rx="54" ry="53.5" fill="#DC962D"/>
<path d="M1007.41 451.756C1007.64 450.765 1008.58 450.11 1009.59 450.245C1010.65 450.387 1011.41 451.35 1011.29 452.414L987.446 671.646C987.191 673.984 984.985 675.6 982.679 675.135L960.971 670.762C958.761 670.317 957.356 668.135 957.863 665.939L1007.41 451.756Z" fill="#2E0003"/>
<path d="M1066.59 457.184C1066.83 457.015 1067.16 457.058 1067.34 457.281C1067.54 457.517 1067.51 457.868 1067.28 458.067L1005.85 510.463C1004.05 511.994 1001.33 511.647 999.973 509.715L999.716 509.348C998.453 507.544 998.885 505.059 1000.68 503.787L1066.59 457.184Z" fill="#2E0003"/>
<path d="M943.096 496.866C942.827 496.748 942.691 496.446 942.782 496.167C942.877 495.874 943.188 495.709 943.484 495.796L997.794 511.693C1000.05 512.354 1001.25 514.809 1000.39 516.997L1000.28 517.273C999.453 519.381 997.04 520.38 994.963 519.474L943.096 496.866Z" fill="#2E0003"/>
<ellipse cx="708" cy="876" rx="795" ry="266" fill="#7C7A15"/>
<ellipse cx="713" cy="917" rx="800" ry="266" fill="#5A620B"/>
<path d="M396.176 751.998C388.041 753.269 384.544 757.798 371.434 753.056C358.324 748.314 349.408 736.661 348.701 734.825C350.842 734.019 357.429 729.028 370.539 733.77C383.649 738.512 388.673 744.543 396.176 751.998Z" fill="#DC812D"/>
<path d="M396.176 751.998C388.041 753.269 384.544 757.798 371.434 753.056C358.324 748.314 349.409 736.661 348.701 734.825C350.842 734.019 356.715 741.003 369.825 745.745C382.935 750.487 386.558 750.294 396.176 751.998Z" fill="#C57327"/>
<path d="M497.967 701.072C490.921 706.347 490.171 712.057 474.932 714.686C459.693 717.314 444.508 711.815 442.782 710.59C444.366 708.795 447.804 701.098 463.043 698.47C478.282 695.842 486.533 698.478 497.967 701.072Z" fill="#DC812D"/>
<path d="M497.967 701.072C490.921 706.347 490.171 712.057 474.932 714.686C459.693 717.314 444.508 711.815 442.782 710.59C444.367 708.795 453.973 711.819 469.212 709.19C484.451 706.562 487.802 704.536 497.967 701.072Z" fill="#C57327"/>
<path d="M371.362 697.685C362.882 700.043 360.111 705.092 344.957 702.011C329.803 698.929 317.649 688.294 316.485 686.527C318.613 685.429 324.61 679.505 339.764 682.586C354.917 685.668 361.649 691.118 371.362 697.685Z" fill="#DC812D"/>
<path d="M371.362 697.685C362.882 700.043 360.111 705.092 344.957 702.011C329.804 698.929 317.65 688.294 316.485 686.527C318.613 685.429 326.467 691.733 341.621 694.814C356.775 697.895 360.633 697.223 371.362 697.685Z" fill="#C57327"/>
<g filter="url(#filter0_d)">
<path d="M-19 805.054C44 805.054 95.0884 800.862 162 866.562C184.079 888.241 278.391 855.354 304.5 899.562C350 965.562 420.091 934.099 472.5 953.062C560.034 984.735 612.36 915.562 719 915.562C817.605 915.562 912.313 980.42 995 953.062C1098.46 918.831 1070.5 891.562 1126 873.062C1192 851.062 1223.08 870.011 1281.5 857.062C1343.11 843.405 1390.85 810.062 1421.5 810.062V1106.56H-19V805.054Z" fill="#E0CD23"/>
</g>
<g filter="url(#filter1_d)">
<path d="M-19 826.054C44 826.054 95.0884 821.862 162 887.562C184.079 909.241 278.391 876.354 304.5 920.562C350 986.562 420.091 955.099 472.5 974.062C560.034 1005.73 612.36 936.562 719 936.562C817.605 936.562 912.313 1001.42 995 974.062C1098.46 939.831 1070.5 912.562 1126 894.062C1192 872.062 1223.08 891.011 1281.5 878.062C1343.11 864.405 1390.85 831.062 1421.5 831.062V1127.56H-19V826.054Z" fill="#D3D735"/>
</g>
<g filter="url(#filter2_d)">
<path d="M-19 846C44 846 95.0884 841.809 162 907.509C184.079 929.188 278.391 896.3 304.5 940.509C350 1006.51 420.091 975.046 472.5 994.009C560.034 1025.68 612.36 956.509 719 956.509C817.605 956.509 912.313 1021.37 995 994.009C1098.46 959.777 1070.5 932.509 1126 914.009C1192 892.009 1223.08 910.958 1281.5 898.009C1343.11 884.351 1390.85 851.009 1421.5 851.009V1147.51H-19V846Z" fill="#FDFFAF"/>
</g>
</g>
<defs>
<filter id="filter0_d" x="-35" y="789" width="1472.5" height="333.562" filterUnits="userSpaceOnUse" color-interpolation-filters="sRGB">
<feFlood flood-opacity="0" result="BackgroundImageFix"/>
<feColorMatrix in="SourceAlpha" type="matrix" values="0 0 0 0 0 0 0 0 0 0 0 0 0 0 0 0 0 0 127 0" result="hardAlpha"/>
<feOffset/>
<feGaussianBlur stdDeviation="8"/>
<feComposite in2="hardAlpha" operator="out"/>
<feColorMatrix type="matrix" values="0 0 0 0 0.352941 0 0 0 0 0.384314 0 0 0 0 0.0431373 0 0 0 1 0"/>
<feBlend mode="normal" in2="BackgroundImageFix" result="effect1_dropShadow"/>
<feBlend mode="normal" in="SourceGraphic" in2="effect1_dropShadow" result="shape"/>
</filter>
<filter id="filter1_d" x="-35" y="810" width="1472.5" height="333.562" filterUnits="userSpaceOnUse" color-interpolation-filters="sRGB">
<feFlood flood-opacity="0" result="BackgroundImageFix"/>
<feColorMatrix in="SourceAlpha" type="matrix" values="0 0 0 0 0 0 0 0 0 0 0 0 0 0 0 0 0 0 127 0" result="hardAlpha"/>
<feOffset/>
<feGaussianBlur stdDeviation="8"/>
<feComposite in2="hardAlpha" operator="out"/>
<feColorMatrix type="matrix" values="0 0 0 0 0.733333 0 0 0 0 0.662069 0 0 0 0 0.0244445 0 0 0 1 0"/>
<feBlend mode="normal" in2="BackgroundImageFix" result="effect1_dropShadow"/>
<feBlend mode="normal" in="SourceGraphic" in2="effect1_dropShadow" result="shape"/>
</filter>
<filter id="filter2_d" x="-35" y="829.946" width="1472.5" height="333.562" filterUnits="userSpaceOnUse" color-interpolation-filters="sRGB">
<feFlood flood-opacity="0" result="BackgroundImageFix"/>
<feColorMatrix in="SourceAlpha" type="matrix" values="0 0 0 0 0 0 0 0 0 0 0 0 0 0 0 0 0 0 127 0" result="hardAlpha"/>
<feOffset/>
<feGaussianBlur stdDeviation="8"/>
<feComposite in2="hardAlpha" operator="out"/>
<feColorMatrix type="matrix" values="0 0 0 0 0.562163 0 0 0 0 0.575 0 0 0 0 0.0551042 0 0 0 1 0"/>
<feBlend mode="normal" in2="BackgroundImageFix" result="effect1_dropShadow"/>
<feBlend mode="normal" in="SourceGraphic" in2="effect1_dropShadow" result="shape"/>
</filter>
</defs>
</svg>
